<svg id="Layer_1" data-name="Layer 1" xmlns="http://www.w3.org/2000/svg" viewBox="0 0 373.3809 64"><defs><style>.cls-1{fill:#414141;}.cls-2{fill:#27a903;}</style></defs><path class="cls-1" d="M97.0718,1.2524V59.3516h31.5273v3.6738H93.3979l.0855-61.773Z"/><path class="cls-1" d="M141.5859,51.2139a14.3619,14.3619,0,0,0,14.1836,9.334,14.3451,14.3451,0,0,0,8.5215-2.4141,12.8952,12.8952,0,0,0,4.8067-6.8994h3.5878q-1.793,6.4512-6.2363,9.5478A18.2045,18.2045,0,0,1,155.77,63.88a19.41,19.41,0,0,1-10.2109-2.6485,17.63,17.63,0,0,1-6.835-7.7324,27.95,27.95,0,0,1-2.4345-12.1748,31.7621,31.7621,0,0,1,2.2422-12.5171,17.4721,17.4721,0,0,1,6.4931-8.0317,18.2951,18.2951,0,0,1,10.2315-2.7764,17.8,17.8,0,0,1,9.6543,2.52,16.1026,16.1026,0,0,1,6.1523,7.3052,28.1842,28.1842,0,0,1,2.1367,11.5342V41.751H139.877A25.1555,25.1555,0,0,0,141.5859,51.2139Zm28.1094-12.71a23.1163,23.1163,0,0,0-1.6015-8.9067,13.2637,13.2637,0,0,0-4.85-6.0659,14.0679,14.0679,0,0,0-8.0742-2.2,14.2724,14.2724,0,0,0-8.5644,2.4775,14.6525,14.6525,0,0,0-5.0625,6.3867,20.8961,20.8961,0,0,0-1.58,8.3086Z"/><path class="cls-1" d="M191.1826,62.4063a11.2172,11.2172,0,0,1-4.9346-4.2081,11.8062,11.8062,0,0,1-1.7294-6.4511,14.3031,14.3031,0,0,1,2.0927-8.1162,12.5475,12.5475,0,0,1,6.6006-4.6778,41.7171,41.7171,0,0,1,11.8975-1.8154l10.167-.3418V32.5234a11.2181,11.2181,0,0,0-1.5811-6.0449,10.2136,10.2136,0,0,0-4.4424-3.8872,15.4,15.4,0,0,0-6.622-1.3457,13.5263,13.5263,0,0,0-8.2657,2.4775,10.1419,10.1419,0,0,0-4.0371,6.9209h-3.5888a12.493,12.493,0,0,1,2.1367-6.1518,13.86,13.86,0,0,1,5.4892-4.6992,20.5594,20.5594,0,0,1,16.7032-.0425,13.098,13.098,0,0,1,5.5537,5.02,14.4737,14.4737,0,0,1,1.9863,7.668V63.0254h-3.0762l-.1709-8.544a16.1215,16.1215,0,0,1-6.9629,7.2627,21.395,21.395,0,0,1-9.6972,2.1358A17.8413,17.8413,0,0,1,191.1826,62.4063Zm15.4219-3.44a18.7143,18.7143,0,0,0,6.2158-4.5283,8.5615,8.5615,0,0,0,2.4561-5.6817V40.1279l-8.544.1709a44.49,44.49,0,0,0-11.1074,1.3028,10.6564,10.6564,0,0,0-5.8311,3.5673,10.3688,10.3688,0,0,0-1.7724,6.3223,8.2322,8.2322,0,0,0,3.0332,6.77,12.5776,12.5776,0,0,0,8.1592,2.4571A17.4131,17.4131,0,0,0,206.6045,58.9668Z"/><path class="cls-1" d="M233.1338,18.853h3.0752v6.5791a13.3437,13.3437,0,0,1,5.7461-5.3613,19.3564,19.3564,0,0,1,9.1211-2.0718,17.2451,17.2451,0,0,1,8.01,1.794,12.828,12.828,0,0,1,5.4678,5.4682,19.0456,19.0456,0,0,1,1.9863,9.1421V63.0254h-3.332V34.4033q0-6.3222-3.2041-9.74t-8.9277-3.4175a21.2183,21.2183,0,0,0-7.3692,1.2173,11.7136,11.7136,0,0,0-5.2763,3.6953,9.522,9.522,0,0,0-1.9649,6.1089V63.0254h-3.332Z"/><path class="cls-2" d="M279.6973,55.7627a17.4435,17.4435,0,0,1,2.499-9.4834,23.1857,23.1857,0,0,1,6.0879-6.5576,97.3471,97.3471,0,0,1,9.44-5.8311q4.9556-2.7333,7.8818-4.7422a18.9851,18.9851,0,0,0,4.87-4.7841,10.9636,10.9636,0,0,0,1.9433-6.4507,10.2683,10.2683,0,0,0-1.5156-5.5752,10.1275,10.1275,0,0,0-4.3369-3.7593,15.0087,15.0087,0,0,0-6.5361-1.3457,15.2123,15.2123,0,0,0-7.0479,1.5591,12.1959,12.1959,0,0,0-4.8281,4.4,14.33,14.33,0,0,0-2.0928,6.643h-7.69a20.3843,20.3843,0,0,1,2.67-9.8471,17.9973,17.9973,0,0,1,7.4756-7.0059A25.2613,25.2613,0,0,1,300.373.3984a24.3777,24.3777,0,0,1,10.6807,2.2,16.5208,16.5208,0,0,1,7.0488,6.1734,16.9964,16.9964,0,0,1,2.4776,9.1846,17.3435,17.3435,0,0,1-2.4776,9.4409,22.0207,22.0207,0,0,1-6.0234,6.4077,96.0186,96.0186,0,0,1-9.3564,5.5967q-4.9557,2.65-7.7745,4.55a18.2849,18.2849,0,0,0-4.7421,4.6133,10.6942,10.6942,0,0,0-1.9219,6.3437v1.2393h32.6377v6.8779H279.6973Z"/><path class="cls-2" d="M363.1064,3.9868a22.8463,22.8463,0,0,1,7.6045,10.7866,50.3037,50.3037,0,0,1,2.67,17.4937q0,10.34-2.6485,17.4087a22.1846,22.1846,0,0,1-7.583,10.6152,21.1632,21.1632,0,0,1-23.4531,0,22.1933,22.1933,0,0,1-7.583-10.5732q-2.6484-7.0254-2.6485-17.3223a50.252,50.252,0,0,1,2.6915-17.5581,23.1109,23.1109,0,0,1,7.6259-10.8291,20.4925,20.4925,0,0,1,23.3242-.0215Zm-1.4521,47.2476q3.353-5.937,3.3535-18.9243,0-13.1572-3.417-19.2456a11.5515,11.5515,0,0,0-20.3779.0429q-3.46,6.13-3.46,19.2027,0,12.9015,3.46,18.8823a11.18,11.18,0,0,0,10.2959,5.98A10.9277,10.9277,0,0,0,361.6543,51.2344Z"/><rect class="cls-1" x="0.5" y="0.5" width="17" height="17"/><path class="cls-1" d="M17,1V17H1V1H17m1-1H0V18H18V0Z"/><rect class="cls-1" x="0.5" y="46.5" width="17" height="17"/><path class="cls-1" d="M17,47V63H1V47H17m1-1H0V64H18V46Z"/><rect class="cls-2" x="23.5" y="23.5" width="17" height="17"/><path class="cls-2" d="M40,24V40H24V24H40m1-1H23V41H41V23Z"/><rect class="cls-1" x="46.5" y="0.5" width="17" height="17"/><path class="cls-1" d="M63,1V17H47V1H63m1-1H46V18H64V0Z"/><rect class="cls-1" x="46.5" y="46.5" width="17" height="17"/><path class="cls-1" d="M63,47V63H47V47H63m1-1H46V64H64V46Z"/></svg>
