<svg xmlns="http://www.w3.org/2000/svg" width="149.9831" height="34.15" viewBox="0 0 149.9831 34.15"><defs><style>.a{fill:#fff;}.b{fill:#f99d1c;}</style></defs><title>sw-logo-rev-svg</title><path class="a" d="M3.9231,34.1538a10.1993,10.1993,0,0,1-3.8462-.6923v-2a17.67,17.67,0,0,0,3.8462.7693c1.2307,0,2.5384-.2308,2.5384-1.7693,0-1.1538-.8461-1.4615-1.923-1.7692l-1.077-.2308C2.1538,28.0769,0,27.5385,0,24.9231,0,22,2.3846,21.3077,4.8462,21.3077A7.5707,7.5707,0,0,1,8.3077,22v1.9231a9.1815,9.1815,0,0,0-3.5385-.7693c-1.5384,0-2.5384.3077-2.5384,1.6154,0,1.1539.923,1.4616,2,1.6923l1.1538.3847c1.4616.3846,3.2308,1.2307,3.2308,3.5384.0769,2.9231-2.0769,3.7692-4.6923,3.7692m13.0769,0c2.3077,0,5.7692-.6923,5.7692-6.4615,0-5.6923-3.5384-6.4615-5.7692-6.4615-2.3846,0-5.7692.923-5.7692,6.4615,0,5.6923,3.3077,6.4615,5.7692,6.4615M17,23c1.3077,0,3.4615.3077,3.4615,4.6923,0,4.2308-2.3077,4.6923-3.4615,4.6923-.9231,0-3.4615-.3077-3.4615-4.6923C13.5385,23.3846,15.6923,23,17,23m8.7692,10.9231h2.3077V17.3846H25.7692V33.9231Zm15.9231,0V25.5385c0-3.2308-1.8461-4.2308-4.6154-4.2308a14.34,14.34,0,0,0-4.6923.8461v1.9231a15.6162,15.6162,0,0,1,4.3077-.8461c1.6154,0,2.5385.3846,2.5385,2v1.0769H36.4615c-2,0-5.2307.6923-5.2307,4.0769,0,3.1539,2.0769,3.8462,4,3.8462a5.4774,5.4774,0,0,0,4.0769-1.8462L39.5385,34l2.1538-.0769Zm-2.3077-3.2308A5.9959,5.9959,0,0,1,36,32.3077c-1.2308,0-2.2308-.4615-2.2308-2.0769,0-2,1.2308-2.5385,3.3846-2.6154h2.2308Zm10.7692-7.3077a4.6666,4.6666,0,0,1,1.9231.3846V21.6154a3.3029,3.3029,0,0,0-1.6923-.3077,3.2279,3.2279,0,0,0-2.9231,1.9231l-.3077-1.6923H45.3846V33.9231h2.3077V24.8462a3.6483,3.6483,0,0,1,2.4615-1.4616m23.6924-1.9231H71.2308l-1.4616,7.1539C69.3846,30.4615,69,32.8462,69,32.8462s-.5385-2.6154-1-4.2308l-2.1539-7.1539H62.4615l-2.1538,7.1539c-.4616,1.6154-1,4.2308-1,4.2308s-.3846-2.5385-.7693-4.2308L57,21.4615H54.3077l3.3846,12.4616h3.2308l1.9231-6.6154c.4615-1.6923,1.3076-4.6154,1.3076-4.6154s.7693,2.9231,1.2308,4.6923L67.3077,34h3.2308Zm2.923,12.4616h2.3077V21.3846H76.7692Zm17,0V25.4615c0-3.1538-1.7692-4.1538-4-4.1538a7.6443,7.6443,0,0,0-4.6923,2l-.4615-1.7692H82.8462V33.9231h2.3076V24.8462a7.8376,7.8376,0,0,1,4.077-1.5385c1.6154,0,2.2307.6154,2.2307,2.1538v8.4616Zm14,0V17.3846h-2.3077v5.0769a4.4982,4.4982,0,0,0-3.3077-1.2307c-1.6923,0-5.6153.7692-5.6153,6.4615,0,5.5385,3.2307,6.4615,5.1538,6.4615a5.1,5.1,0,0,0,4-1.7692l.2308,1.5385Zm-2.3077-3.0769a5.8729,5.8729,0,0,1-3.3077,1.4615c-1.4615,0-3.3076-.4615-3.3076-4.6154,0-3.9231,1.7692-4.5385,3.5384-4.5385a4.9624,4.9624,0,0,1,3.0769,1.2308v6.4616ZM115,34.1538c2.6154,0,4.6923-.7692,4.6923-3.7692,0-2.3077-1.8461-3.1538-3.2308-3.5384l-1.2307-.3077c-1.0769-.3077-2-.5385-2-1.6923,0-1.3077,1-1.6154,2.5384-1.6154A9.1825,9.1825,0,0,1,119.3077,24V22.0769a7.5707,7.5707,0,0,0-3.4615-.6923C113.3846,21.3846,111,22.0769,111,25c0,2.6154,2.1539,3.1538,3.4615,3.5385l1,.3077c1.077.3076,1.9231.5384,1.9231,1.7692,0,1.5384-1.2308,1.7692-2.5384,1.7692A17.6707,17.6707,0,0,1,111,31.6154v2a31.0357,31.0357,0,0,0,4,.5384"/><path class="b" d="M130.6154,13.9231c-1.6923.4615-3.3846.8461-5.0769,1.3846A22.3635,22.3635,0,0,0,113,9.6923,40.9764,40.9764,0,0,1,136.6923,2l-2.9231,2.6923S146.1538,4.2308,149.2308,0a8.4075,8.4075,0,0,1-.3846,1.3077,14.14,14.14,0,0,1-4.5385,6.3846,26.53,26.53,0,0,1-6.3846,3.6923,58.64,58.64,0,0,1-7,2.5385c-.0769-.0769-.2308,0-.3077,0M150,13.5385a69.0114,69.0114,0,0,0-23.2308,2.923,22.2936,22.2936,0,0,1,3.9231,5.6154c6.2308-3.4615,14.8462-7.9231,19.3077-8.5384M131.4615,23.8462a21.4866,21.4866,0,0,1,1.3847,5.923l10.8461-11.1538Zm5.8462,5.8461a.926.926,0,1,0-1-.9231.9084.9084,0,0,0,1,.9231m0-1.6154a.7071.7071,0,0,1,.7692.6923c0,.5385-.3846.6923-.7692.6923a.707.707,0,0,1-.7692-.6923c0-.5384.3846-.6923.7692-.6923m.3846,1.1539L137.6154,29c0-.0769-.0769-.1538-.1539-.2308.077-.0769.1539-.0769.1539-.2307,0-.2308-.2308-.3077-.3846-.3077h-.3077v1h.2307v-.3846h.1539c.0769,0,.0769.1538.0769.2307l.0769.1539Zm-.3846-.7693c.1538,0,.1538,0,.1538.1539,0,.0769-.0769.1538-.3077.1538v-.3077h.1539"/></svg>