<?xml version="1.0" encoding="UTF-8"?>
<svg width="1920px" height="969px" viewBox="0 0 1920 969" version="1.1" xmlns="http://www.w3.org/2000/svg" xmlns:xlink="http://www.w3.org/1999/xlink">
    <!-- Generator: Sketch 53.2 (72643) - https://sketchapp.com -->
    <title>bg</title>
    <desc>Created with Sketch.</desc>
    <g id="Page-1" stroke="none" stroke-width="1" fill="none" fill-rule="evenodd">
        <g id="bg">
            <g id="Grid">
                <g id="Pre-cloud-tracks" transform="translate(0.000000, 163.000000)">
                    <polyline id="Path" points="91 0 199.151312 0 200.25 224 75 225 75 348 191.5 348 191.5 662 116 662 116 747.25 1639 747.25 1641.25 185.5"></polyline>
                    <polyline id="Path" points="465.894976 1.13686838e-13 199.151312 1.13686838e-13 200.25 224 75 225 75 348 191.5 348 191.5 662 116 662 116 747.25 1639 747.25 1641.25 185.5"></polyline>
                    <polyline id="Path" points="0 224 75 225 75 348 191.5 348 191.5 662 116 662 116 747.25 1639 747.25 1641.25 185.5"></polyline>
                    <polyline id="Path" points="259.5 348 191.5 348 191.5 662 116 662 116 747.25 1639 747.25 1641.25 185.5"></polyline>
                    <polyline id="Path" points="123 498.5 191.5 498.5 191.5 662 116 662 116 747.25 1639 747.25 1641.25 185.5"></polyline>
                    <polyline id="Path" points="0 662 116 662 116 747.25 1639 747.25 1641.25 185.5"></polyline>
                    <polyline id="Path" points="920.5 705.5 920.5 747.25 1639 747.25 1641.25 185.5"></polyline>
                    <polyline id="Path" points="1790 806 1790 747.25 1639 747.25 1641.25 185.5"></polyline>
                    <polyline id="Path" points="1733 573 1640.125 573 1641.25 185.5"></polyline>
                    <polyline id="Path" points="1544 421 1640.125 421 1641.25 185.5"></polyline>
                </g>
                <g id="Post-cloud-tracks" transform="translate(1485.000000, 0.000000)">
                    <polyline id="Path" points="179.5 271.859852 179.5 246 -4.26325641e-14 246 -4.26325641e-14 0"></polyline>
                    <polyline id="Path" points="284.5 301.501293 284.5 119 435 119"></polyline>
                    <polyline id="Path" points="249 348.5 249 392 380 392 380 329.5 435 329.5"></polyline>
                    <polyline id="Path" points="249 348.5 249 392 380 392 380 511 435 511"></polyline>
                </g>
                <g id="Paths" transform="translate(-0.000000, 0.000000)" stroke="#343535" stroke-width="4">
                    <polyline id="Path-2" points="91 163.25 263.421041 163.25 465.894976 163.25"></polyline>
                    <polyline id="Path-3" points="199.151312 163 199.151312 387 0 387"></polyline>
                    <polyline id="Path-4" points="75 388 75 511 259.5 511"></polyline>
                    <polyline id="Path-5" points="191.75 511 191.75 825 0 825"></polyline>
                    <path d="M123,661.5 L191.5,661.5" id="Path-6"></path>
                    <polyline id="Path-7" points="116 827 116 910 1790 910 1790 969"></polyline>
                    <path d="M1641.25,348 L1639,912" id="Path-9"></path>
                    <polyline id="Path-10" points="1769.5 315 1769.5 119 1920 119"></polyline>
                    <polyline id="Path-12" points="1734 345.5 1734 392 1865 392 1865 511 1920 511"></polyline>
                    <polyline id="Path-13" points="1865 405 1865 329.5 1920 329.5"></polyline>
                    <polyline id="Path-14" points="1664.5 288 1664.5 246 1485 246 1485 0"></polyline>
                    <path d="M1640.5,584 L1544,584" id="Path-15"></path>
                    <path d="M920.5,913 L920.5,868.5" id="Path-17"></path>
                    <path d="M1638.5,736 L1733,736" id="Path-19"></path>
                </g>
                <g id="Arrows" transform="translate(165.000000, 150.000000)" stroke="#343535" stroke-linecap="round" stroke-width="4">
                    <polyline id="Path-16" points="1501.5 313 1475.5 288 1447 313"></polyline>
                    <polyline id="Path-16" transform="translate(1254.500000, 762.250000) scale(-1, 1) rotate(-90.000000) translate(-1254.500000, -762.250000) " points="1281.75 774.75 1255.75 749.75 1227.25 774.75"></polyline>
                    <polyline id="Path-16" transform="translate(224.500000, 760.250000) scale(-1, 1) rotate(-90.000000) translate(-224.500000, -760.250000) " points="251.75 772.75 225.75 747.75 197.25 772.75"></polyline>
                    <polyline id="Path-16" transform="translate(27.250000, 607.500000) rotate(180.000000) translate(-27.250000, -607.500000) " points="54.5 620 28.5 595 0 620"></polyline>
                    <polyline id="Path-16" transform="translate(35.250000, 115.500000) rotate(180.000000) translate(-35.250000, -115.500000) " points="62.5 128 36.5 103 8 128"></polyline>
                    <polyline id="Path-16" transform="translate(1644.500000, 238.250000) rotate(90.000000) translate(-1644.500000, -238.250000) " points="1671.75 250.75 1645.75 225.75 1617.25 250.75"></polyline>
                    <polyline id="Path-16" points="1631.5 25 1605.5 0 1577 25"></polyline>
                    <polyline id="Path-16" points="1347.5 38 1321.5 13 1293 38"></polyline>
                </g>
            </g>
            <path d="M1626.64261,296.214779 C1612.20445,296.214779 1600.5,307.919225 1600.5,322.35739 C1600.5,336.795555 1612.20445,348.5 1626.64261,348.5 L1757.35739,348.5 C1771.79555,348.5 1783.5,336.795555 1783.5,322.35739 C1783.5,307.919225 1771.79555,296.214779 1757.35739,296.214779 L1754.8726,296.214779 L1754.82256,293.765852 C1754.41983,274.056525 1745.15531,261.751876 1726.66629,256.332439 C1708.20006,250.919685 1692.26068,257.486577 1678.40365,276.414729 L1677.07974,278.223141 L1675.13798,277.10391 C1663.43445,270.357981 1653.48951,269.238093 1645.07338,273.513248 C1636.4999,277.868335 1631.28409,284.712455 1629.29425,294.22657 L1628.87843,296.214779 L1626.64261,296.214779 Z" id="Cloud" stroke="#343535" stroke-width="5" fill="#D9643A" fill-rule="nonzero"></path>
            <g id="Icons" transform="translate(56.000000, 110.000000)" fill="#343535" fill-rule="nonzero">
                <path d="M1528.548,459.908 C1528.548,460.664 1527.9,460.988 1527.144,461.312 C1524.12,462.608 1520.88,463.796 1517.424,463.796 C1512.564,463.796 1510.296,460.772 1504.464,460.772 C1500.252,460.772 1495.824,462.284 1492.26,463.904 C1492.044,464.012 1491.828,464.012 1491.612,464.12 L1491.612,472.328 C1491.612,474.585559 1489.91163,476 1488.048,476 C1485.996,476 1484.376,474.38 1484.376,472.328 L1484.376,432.8 C1482.972,431.72 1482,429.992 1482,428.048 C1482,424.7 1484.7,422 1488.048,422 C1491.396,422 1494.096,424.7 1494.096,428.048 C1494.096,429.992 1493.232,431.72 1491.72,432.8 L1491.72,436.148 C1492.15495,436.003086 1497.91819,433.124 1503.816,433.124 C1510.69995,433.124 1514.11777,436.04 1517.208,436.04 C1521.312,436.04 1525.848,433.124 1526.928,433.124 C1527.792,433.124 1528.548,433.772 1528.548,434.528 L1528.548,459.908 Z" id="FontAwesome"></path>
                <path d="M220.9715,386.201 L226.3265,373.3175 L231.6815,386.201 L226.3265,386.201 L220.9715,386.201 Z M226.3265,353 L255.653,363.458 L251.18,402.2345 L226.3265,416 L201.473,402.2345 L197,363.458 L226.3265,353 Z M244.628,401.069 L226.3265,359.9615 L208.025,401.069 L214.8605,401.069 L218.546,391.871 L226.3265,391.871 L234.107,391.871 L237.7925,401.069 L244.628,401.069 Z" id="Angular"></path>
                <polygon id="Bulma" points="45 547.5 49.5 516 67.5 498 90.0000001 520.5 76.5 534 94.5 552 67.5 570"></polygon>
                <path d="M836.941184,717.041199 C831.448912,724.939979 832.128168,735.214216 836.327913,743.629232 C836.42495,743.831068 836.53169,744.029023 836.634549,744.226978 L836.828622,744.60542 C836.867437,744.679168 836.910133,744.750975 836.950888,744.822782 C837.022695,744.958634 837.096443,745.082841 837.170191,745.21481 L837.571922,745.90183 L837.800929,746.278332 L838.266705,747.006106 L838.464659,747.312742 C838.683962,747.638785 838.907146,747.964828 839.138093,748.283108 L839.270063,748.461656 C839.470117,748.736619 839.674567,749.008356 839.883335,749.276763 L840.116222,749.571754 L840.682916,750.270418 L840.900278,750.530476 C841.158396,750.835171 841.424276,751.137925 841.690156,751.432917 C841.717327,751.462028 841.728971,751.471731 841.736734,751.483376 C842.000392,751.769353 842.268242,752.051436 842.540197,752.329535 L842.798315,752.589593 L843.438756,753.218391 L843.700755,753.470686 C843.988976,753.742476 844.282074,754.009046 844.579907,754.270267 L845.54251,755.085375 L845.872435,755.349315 L846.538106,755.869431 L846.89326,756.141133 L847.640442,756.676776 L847.989774,756.923249 C848.228484,757.088211 848.471075,757.24541 848.715608,757.40261 L849.030006,757.612209 C849.404607,757.850024 849.783101,758.081649 850.165335,758.306991 L850.479733,758.501064 L851.333656,758.978484 C851.488914,759.061936 851.648054,759.141506 851.805253,759.221076 L852.414643,759.537415 L852.556317,759.605341 L852.808612,759.725666 L853.775097,760.172035 L853.978874,760.263249 C854.351949,760.425773 854.727863,760.581702 855.106439,760.730966 L855.378142,760.839647 L856.441663,761.233615 L856.577514,761.280193 C856.970196,761.4154 857.364855,761.544796 857.761361,761.668339 L858.048589,761.753731 C858.436736,761.875998 858.855934,762.025434 859.271251,762.099182 C885.84764,766.945191 893.563992,746.126955 893.563992,746.126955 C887.081946,754.573022 875.573403,756.800982 864.64708,754.320727 C864.233704,754.227571 863.831972,754.099483 863.43024,753.979158 L863.127486,753.887943 C862.734606,753.767177 862.343815,753.639718 861.955284,753.505619 L861.794203,753.447397 C861.44833,753.324639 861.104142,753.197186 860.761733,753.065073 L860.470623,752.948629 C860.095498,752.801031 859.723446,752.64574 859.354702,752.482853 L859.131518,752.385816 L858.190263,751.947211 L857.91856,751.817182 C857.674028,751.700738 857.433377,751.570709 857.190786,751.429035 L856.705603,751.17674 C856.410611,751.021482 856.123383,750.854579 855.832273,750.687676 L855.537282,750.522713 C855.155213,750.297098 854.776723,750.065475 854.401953,749.827931 C854.299095,749.761946 854.198176,749.69208 854.095318,749.624154 L853.287973,749.086571 C853.198699,749.028349 853.0939,748.962364 853.027915,748.904143 L852.263266,748.351034 L851.923638,748.094857 L851.234678,747.555334 L850.928042,747.308861 L850.070239,746.584967 C850.039044,746.557684 850.006668,746.531783 849.973202,746.507338 L849.070762,745.686408 L848.818466,745.441876 L848.174143,744.801434 L847.921848,744.549139 C847.650146,744.271614 847.386206,743.992149 847.145555,743.706861 C847.13197,743.693276 847.118385,743.679691 847.10674,743.664165 C846.831954,743.362554 846.562793,743.055865 846.299396,742.744258 L846.105323,742.491963 L845.523103,741.773892 L845.32903,741.508011 L844.657536,740.615275 C838.567518,732.363281 836.390016,720.955656 841.230203,711.601326 M854.000222,710.388368 C850.025602,716.107706 850.241023,723.779421 853.340373,729.811218 C853.859723,730.827828 854.447161,731.808189 855.098676,732.745605 C855.694481,733.599527 856.35433,734.61453 857.144208,735.299609 C857.431437,735.615948 857.730309,735.920643 858.036945,736.225338 L858.269833,736.458226 C858.566456,736.747484 858.869943,737.029617 859.180036,737.304385 C859.193622,737.314089 859.203325,737.327674 859.218851,737.337378 C859.572064,737.647895 859.929159,737.919597 860.292076,738.226233 L860.532727,738.414484 C860.896832,738.695297 861.268288,738.966447 861.646707,739.227651 L861.6797,739.25094 C861.846603,739.367384 862.017387,739.474124 862.188172,739.586686 C862.269682,739.639086 862.347312,739.695367 862.428822,739.745827 C862.700128,739.919889 862.975128,740.088124 863.253634,740.250417 L863.370078,740.318343 L864.099793,740.706489 C864.185185,740.755007 864.293866,740.795763 864.359851,740.84234 L864.870264,741.10628 C864.895493,741.119865 864.922664,741.129569 864.947893,741.141213 C865.29796,741.315554 865.652592,741.480574 866.011414,741.6361 L866.244302,741.733136 C866.533373,741.855856 866.824525,741.973611 867.117632,742.08635 L867.490252,742.222201 C867.755993,742.318798 868.023199,742.411317 868.291775,742.499726 L868.654692,742.61617 C869.037016,742.732614 869.430985,742.887872 869.813309,742.951916 C890.332672,746.352079 895.07,730.531229 895.07,730.531229 C890.800389,736.683351 882.532869,739.613857 873.706418,737.323793 C873.316302,737.221144 872.928692,737.109196 872.543919,736.988046 C872.427476,736.953113 872.311032,736.914298 872.194588,736.875483 L871.37948,736.596018 L870.991334,736.460167 C870.698348,736.347122 870.4072,736.229369 870.118004,736.106953 L869.881235,736.009917 C869.520186,735.852969 869.162987,735.687311 868.80995,735.513089 L868.272368,735.241387 L867.96185,735.082247 C867.7335,734.958268 867.507055,734.830812 867.282594,734.699922 L867.119573,734.608708 C866.84192,734.446056 866.567574,734.277826 866.296702,734.104118 C866.213251,734.051718 866.13174,733.993496 866.048288,733.939155 L865.514587,733.585942 C865.138694,733.325426 864.769823,733.054921 864.408369,732.774716 L864.156074,732.580643 C860.27461,729.529811 857.231541,725.361118 855.775992,720.637376 C854.250576,715.737026 854.57856,710.23505 857.221838,705.771366 M868.346115,705.416212 C866.005592,708.880419 865.772704,713.146149 867.399038,716.953866 C869.112705,720.996411 872.62543,724.165627 876.726198,725.687161 L877.23467,725.881235 L877.459795,725.951101 L878.191451,726.145174 C889.521446,728.33432 892.591685,720.33074 893.412615,719.152715 C890.720819,723.028358 886.196972,723.957969 880.646477,722.611101 C880.207872,722.50436 879.72657,722.34522 879.30349,722.195784 C878.760487,722.003328 878.22799,721.782426 877.708208,721.533994 C876.721719,721.059555 875.784903,720.488104 874.911613,719.82809 C869.945279,716.061129 866.859514,708.853249 870.100537,703" id="jQuery"></path>
                <path d="M377,20.4456522 L481,20.4456522 L481,54.8245342 L429,54.8245342 L429,60.5543478 L405.888889,60.5543478 L405.888889,54.8245342 L377,54.8245342 L377,20.4456522 Z M382.777778,49.0947205 L394.333333,49.0947205 L394.333333,31.9052795 L400.111111,31.9052795 L400.111111,49.0947205 L405.888889,49.0947205 L405.888889,26.1754658 L382.777778,26.1754658 L382.777778,49.0947205 Z M411.666667,26.1754658 L411.666667,54.8245342 L423.222222,54.8245342 L423.222222,49.0947205 L434.777778,49.0947205 L434.777778,26.1754658 L411.666667,26.1754658 Z M423.222222,31.9052795 L429,31.9052795 L429,43.3649068 L423.222222,43.3649068 L423.222222,31.9052795 Z M440.555556,26.1754658 L440.555556,49.0947205 L452.111111,49.0947205 L452.111111,31.9052795 L457.888889,31.9052795 L457.888889,49.0947205 L463.666667,49.0947205 L463.666667,31.9052795 L469.444444,31.9052795 L469.444444,49.0947205 L475.222222,49.0947205 L475.222222,26.1754658 L440.555556,26.1754658 Z" id="NPM"></path>
                <path d="M1659,621.037212 L1659,580.962788 C1659,577.117347 1662.0592,574 1665.83385,574 L1705.16615,574 C1708.94038,574 1712,577.116924 1712,580.962788 L1712,591 L1698,597.5 L1694,599.5 C1694.88624,599.911758 1695.21957,600.078424 1695,600 C1694.95154,599.982691 1694.6182,599.816024 1694,599.5 C1695.27915,598.841404 1696.11248,598.341404 1696.5,598 C1697.62738,597.006764 1697.89507,596.024651 1698,595.5 C1698.52906,592.854716 1698.25604,590.853455 1698,590 C1697,586.666667 1693.83333,585 1688.5,585 L1673,585 L1673,617 C1677.26503,617.009196 1680.26503,617.009196 1682,617 C1689.06435,616.962555 1692.27189,617.130349 1696,615 C1697.64525,614.059859 1701,611 1699.5,605 C1698.92876,602.71504 1697.09543,600.881706 1694,599.5 L1698,597.5 C1707.33333,593.149906 1712,590.983239 1712,591 C1712,595.448537 1712,605.460941 1712,621.037212 C1712,624.882653 1708.9408,628 1705.16615,628 L1665.83385,628 C1662.05962,628 1659,624.883077 1659,621.037212 Z M1680,598 L1680,590.5 L1687.06087,590.5 C1690.08696,590.5 1691.6,591.75 1691.6,594.25 C1691.6,596.75 1689.91884,598 1686.55652,598 L1680,598 Z M1680,611.75 L1680,602.75 L1687.66957,602.75 C1691.22319,602.75 1693,604.25 1693,607.25 C1693,610.25 1691.04058,611.75 1687.12174,611.75 L1680,611.75 Z" id="Bootstrap"></path>
                <path d="M28.1141498,1.47138963e-05 C14.3291065,-0.0139960479 2.57201487,9.97940642 0.364861572,23.5866137 C-1.84229173,37.1938209 6.15314924,50.3911775 19.2358377,54.7352398 C20.6494719,54.9938314 21.1494157,54.1146199 21.1494157,53.3733239 C21.1494157,52.632028 21.1494157,50.9425627 21.1494157,48.5979988 C13.30547,50.3047034 11.6504837,44.8225612 11.6504837,44.8225612 C11.1301091,43.1234858 10.0245962,41.6637202 8.53014488,40.7023348 C5.99594706,38.9783907 8.73701817,38.9783907 8.73701817,38.9783907 C10.5370129,39.232639 12.1200257,40.3006959 13.029639,41.8746168 C13.8000319,43.271521 15.0950552,44.3040759 16.6284443,44.7440357 C18.1618333,45.1839954 19.8073071,44.9951274 21.201134,44.2191808 C21.3093292,42.8009761 21.9207354,41.4681105 22.9250781,40.4609826 C16.6844005,39.7541656 10.1334129,37.3406438 10.1334129,26.6694299 C10.0905625,23.8817804 11.1213662,21.184408 13.0123995,19.1357942 C12.170174,16.7119783 12.2686124,14.0602939 13.2882306,11.7055951 C13.2882306,11.7055951 15.650034,10.9470597 21.0115001,14.5845818 C25.6154387,13.3205185 30.4749454,13.3205185 35.078884,14.5845818 C40.4403501,10.9470597 42.7849141,11.7055951 42.7849141,11.7055951 C43.8187336,14.0353769 43.9417552,16.6680384 43.1297029,19.0840759 C45.0207363,21.1326897 46.0515399,23.830062 46.0086895,26.6177116 C46.0086895,37.4096016 39.4404625,39.771405 33.1825455,40.4092643 C34.5402786,41.7741014 35.2385106,43.661215 35.0961234,45.5810966 C35.0961234,49.3392947 35.0961234,52.3734363 35.0961234,53.2871267 C35.0961234,54.2008171 35.5960672,54.9076342 37.0269408,54.6318031 C49.9542812,50.1753729 57.7927847,37.0557664 55.5910896,23.5602695 C53.3893944,10.0647725 41.7875649,0.116719283 28.1141498,1.47138963e-05 Z" id="GitHub"></path>
            </g>
        </g>
    </g>
</svg>
