<?xml version="1.0" encoding="UTF-8"?>
<svg width="1080px" height="1492px" viewBox="0 0 1080 1492" version="1.1" xmlns="http://www.w3.org/2000/svg" xmlns:xlink="http://www.w3.org/1999/xlink">
    <!-- Generator: Sketch 53.2 (72643) - https://sketchapp.com -->
    <title>mobile</title>
    <desc>Created with Sketch.</desc>
    <g id="Page-1" stroke="none" stroke-width="1" fill="none" fill-rule="evenodd">
        <g id="mobile">
            <g id="Grid" transform="translate(0.000000, 94.000000)" stroke="#343535" stroke-width="7.2">
                <polyline id="Path-2" points="141.034335 0.81630547 451.425097 0.81630547 815.916802 0.81630547"></polyline>
                <polyline id="Path-3" points="335.727326 0.36635707 335.727326 403.520124 0 403.520124"></polyline>
                <polyline id="Path-4" points="112.231283 405.319917 112.231283 626.69453 326 626.69453"></polyline>
                <path d="M322.403553,626.69453 L322.403553,1191.82972 C178.224196,1194.22945 70.756345,1195.42931 0,1195.42931" id="Path-5"></path>
                <path d="M198.640439,897.563467 L321.953505,897.563467" id="Path-6"></path>
                <polyline id="Path-7" points="186.039103 1195.42931 186.039103 1344.81218 1080 1344.81218"></polyline>
                <polyline id="Path-16" stroke-linecap="round" transform="translate(678.391275, 1345.262125) scale(-1, 1) rotate(-90.000000) translate(-678.391275, -1345.262125) " points="727.435651 1367.76451 680.641017 1322.75974 629.3469 1367.76451"></polyline>
                <polyline id="Path-16" stroke-linecap="round" transform="translate(323.303648, 1070.343652) rotate(180.000000) translate(-323.303648, -1070.343652) " points="372.358846 1092.84107 325.553887 1047.84623 274.24845 1092.84107"></polyline>
                <polyline id="Path-16" stroke-linecap="round" transform="translate(337.705174, 184.845201) rotate(180.000000) translate(-337.705174, -184.845201) " points="386.760372 207.342621 339.955412 162.347781 288.649976 207.342621"></polyline>
            </g>
            <g id="Icons" transform="translate(77.027659, 0.000000)" fill="#343535" fill-rule="nonzero">
                <path d="M679.671912,35.7979539 L866.89175,35.7979539 L866.89175,97.6728458 L773.281831,97.6728458 L773.281831,107.985328 L731.677423,107.985328 L731.677423,97.6728458 L679.671912,97.6728458 L679.671912,35.7979539 Z M690.073014,87.3603638 L710.875218,87.3603638 L710.875218,56.4229179 L721.27632,56.4229179 L721.27632,87.3603638 L731.677423,87.3603638 L731.677423,46.1104359 L690.073014,46.1104359 L690.073014,87.3603638 Z M742.078525,46.1104359 L742.078525,97.6728458 L762.880729,97.6728458 L762.880729,87.3603638 L783.682933,87.3603638 L783.682933,46.1104359 L742.078525,46.1104359 Z M762.880729,56.4229179 L773.281831,56.4229179 L773.281831,77.0478818 L762.880729,77.0478818 L762.880729,56.4229179 Z M794.084035,46.1104359 L794.084035,87.3603638 L814.886239,87.3603638 L814.886239,56.4229179 L825.287341,56.4229179 L825.287341,87.3603638 L835.688444,87.3603638 L835.688444,56.4229179 L846.089546,56.4229179 L846.089546,87.3603638 L856.490648,87.3603638 L856.490648,46.1104359 L794.084035,46.1104359 Z" id="NPM"></path>
                <path d="M51.7386946,2.6569214e-05 C26.8467314,-0.025272979 5.61668619,18.020039 1.63117976,42.5908796 C-2.35432667,67.1617202 12.0832212,90.9924842 35.7069264,98.8366553 C38.2595575,99.3036 39.1623172,97.715988 39.1623172,96.3774132 C39.1623172,95.0388384 39.1623172,91.988133 39.1623172,87.754501 C24.9983279,90.8363361 22.0098818,80.9371084 22.0098818,80.9371084 C21.0702297,77.8690497 19.0739802,75.2331181 16.3754158,73.4971228 C11.7993577,70.3841581 16.7489715,70.3841581 16.7489715,70.3841581 C19.9992626,70.84326 22.8577445,72.7718743 24.5002536,75.6139388 C25.8913695,78.1363601 28.2298222,80.0008679 30.9986973,80.7953131 C33.7675725,81.5897583 36.7388415,81.248715 39.2557062,79.8475707 C39.4510767,77.2866866 40.5551067,74.8799012 42.3686709,73.0613077 C31.0997387,71.7849922 19.2704729,67.4268417 19.2704729,48.1575902 C19.1930971,43.1238687 21.0544424,38.2531628 24.4691239,34.5539346 C22.9482983,30.1771956 23.1260507,25.3889894 24.9671983,21.1370568 C24.9671983,21.1370568 29.2319599,19.7673523 38.9132801,26.3357078 C47.2267156,24.0531603 56.0016364,24.0531603 64.3150719,26.3357078 C73.9963921,19.7673523 78.230024,21.1370568 78.230024,21.1370568 C80.0968153,25.3439962 80.3189582,30.0978524 78.852617,34.4605456 C82.2672985,38.1597738 84.1286439,43.0304798 84.051268,48.0642013 C84.051268,67.5513602 72.1908726,71.8161219 60.8908108,72.9679188 C63.3425,75.4324359 64.6033133,78.8400394 64.3462016,82.3068128 C64.3462016,89.0930759 64.3462016,94.5718937 64.3462016,96.221765 C64.3462016,97.8716363 65.2489613,99.1479518 67.832722,98.6498774 C91.1759117,90.602801 105.330074,66.9124321 101.354424,42.5433093 C97.3787731,18.1741865 76.4290881,0.210762638 51.7386946,2.6569214e-05 Z" id="GitHub"></path>
                <path d="M53.0865499,947.345686 C43.1724807,961.603729 44.3986023,980.149694 51.9795372,995.33959 C52.1546974,995.703923 52.3473737,996.06125 52.5330435,996.418577 L52.883364,997.101702 C52.9534281,997.234823 53.0304986,997.364442 53.1040659,997.49406 C53.2336845,997.739285 53.3668062,997.96349 53.499928,998.201708 L54.2250914,999.441842 L54.6384695,1000.12146 L55.4792387,1001.43517 L55.8365655,1001.98867 C56.2324277,1002.57721 56.6352962,1003.16575 57.0521775,1003.74027 L57.2903955,1004.06257 C57.6515115,1004.5589 58.0205632,1005.04942 58.3974081,1005.53392 L58.8177927,1006.0664 L59.8407285,1007.32756 L60.2330874,1007.79699 C60.6990136,1008.34699 61.1789526,1008.89349 61.6588917,1009.42598 C61.7079365,1009.47852 61.7289558,1009.49604 61.7429686,1009.51706 C62.2188962,1010.03327 62.7023908,1010.54246 63.1932953,1011.04446 L63.6592215,1011.51389 L64.8152791,1012.64892 L65.2882117,1013.10434 C65.808477,1013.59495 66.337547,1014.07613 66.8751634,1014.54766 L68.6127529,1016.01901 L69.2082977,1016.49544 L70.4098969,1017.4343 L71.0509834,1017.92475 L72.3997172,1018.89163 L73.030294,1019.33654 C73.4611882,1019.63431 73.8990888,1019.91807 74.3404926,1020.20183 L74.9080117,1020.58018 C75.5842008,1021.00946 76.2674185,1021.42756 76.9573864,1021.83433 L77.5249056,1022.18465 L79.0663156,1023.04644 C79.346572,1023.19707 79.6338348,1023.3407 79.9175944,1023.48434 L81.0176006,1024.05536 L81.2733346,1024.17797 L81.7287512,1024.39517 L83.4733471,1025.20091 L83.8411836,1025.36556 C84.5146204,1025.65893 85.1931799,1025.94039 85.8765455,1026.20983 L86.3669942,1026.40601 L88.2867503,1027.11716 L88.5319746,1027.20124 C89.2408025,1027.4453 89.9531986,1027.67887 90.6689295,1027.90188 L91.1874038,1028.05602 C91.8880447,1028.27672 92.6447369,1028.54647 93.3944227,1028.67959 C141.367307,1037.42709 155.296049,999.848214 155.296049,999.848214 C143.595346,1015.09416 122.821342,1019.11584 103.0983,1014.63874 C102.352117,1014.47059 101.626954,1014.23938 100.90179,1014.02218 L100.35529,1013.85753 C99.646105,1013.63954 98.9406905,1013.40946 98.2393548,1013.1674 L97.9485888,1013.0623 C97.3242558,1012.84071 96.7029634,1012.61065 96.0848839,1012.37217 L95.5594032,1012.16198 C94.8822667,1011.89555 94.2106773,1011.61524 93.5450605,1011.32121 L93.142192,1011.14605 L91.4431377,1010.35432 L90.9526891,1010.11961 C90.5112853,1009.90942 90.0768879,1009.6747 89.6389873,1009.41897 L88.7631862,1008.96355 C88.230699,1008.6833 87.7122248,1008.38202 87.1867441,1008.08074 L86.6542569,1007.78297 C85.9645858,1007.37572 85.2813761,1006.95761 84.6048822,1006.52883 C84.4192124,1006.40972 84.2370457,1006.2836 84.0513759,1006.16099 L82.5940427,1005.1906 C82.4328953,1005.0855 82.2437223,1004.9664 82.1246133,1004.8613 L80.7443507,1003.86289 L80.1312899,1003.40046 L78.8876522,1002.42657 L78.3341459,1001.98167 L76.7857294,1000.67497 C76.7294203,1000.62572 76.6709773,1000.57897 76.6105692,1000.53484 L74.981579,999.052987 L74.5261624,998.611583 L73.3630985,997.455525 L72.9076818,997.000109 C72.4172332,996.49915 71.9407974,995.994689 71.5064,995.479718 C71.4818776,995.455195 71.4573551,995.430673 71.4363359,995.402647 C70.9403202,994.858211 70.4544587,994.304609 69.9790028,993.742128 L69.6286823,993.286712 L68.5777209,991.990526 L68.2274004,991.510587 L67.0152916,989.899113 C56.0222354,975.003487 52.0916397,954.41165 60.8286322,937.526203 M83.8797189,935.3367 C76.7051557,945.660644 77.0940114,959.508812 82.6886293,970.396772 C83.6261044,972.231849 84.6864867,974.001494 85.8625327,975.693618 C86.9380165,977.235028 88.1291061,979.067204 89.5549104,980.303835 C90.0733847,980.874858 90.6128782,981.424861 91.1663846,981.974864 L91.5867691,982.395248 C92.1222009,982.917386 92.6700247,983.426664 93.2297721,983.922646 C93.2542945,983.940162 93.2718106,983.964684 93.2998362,983.9822 C93.9374194,984.542713 94.5820091,985.033161 95.2371084,985.586668 L95.6715057,985.926479 C96.32875,986.433372 96.9992635,986.922824 97.6823452,987.394321 L97.7418997,987.43636 C98.0431753,987.646552 98.3514573,987.839228 98.6597393,988.042414 C98.8068739,988.137001 98.9470021,988.238594 99.0941367,988.329677 C99.5838688,988.643876 100.08027,988.947556 100.582999,989.24051 L100.793191,989.363122 L102.110396,990.063763 C102.264537,990.151344 102.460716,990.224911 102.579825,990.308988 L103.501168,990.785424 C103.54671,990.809946 103.595755,990.827462 103.641296,990.848481 C104.2732,991.163183 104.913344,991.46106 105.561053,991.741798 L105.981437,991.916959 C106.503236,992.138478 107.028794,992.351037 107.557879,992.554542 L108.230494,992.799766 C108.710182,992.974134 109.192513,993.141139 109.677318,993.300724 L110.332417,993.510917 C111.022549,993.721109 111.733699,994.001365 112.42383,994.116971 C149.463213,1000.25459 158.014536,971.696461 158.014536,971.696461 C150.307486,982.80162 135.383834,988.091459 119.451259,983.957678 C118.747063,983.772387 118.04739,983.570311 117.352839,983.351623 C117.142647,983.288566 116.932455,983.218501 116.722263,983.148437 L115.250917,982.643976 L114.550276,982.398752 C114.021408,982.194696 113.495859,981.98214 112.973834,981.761168 L112.546443,981.586008 C111.894717,981.302703 111.249938,981.003675 110.612674,980.689188 L109.642286,980.198739 L109.081773,979.911476 C108.669579,979.687683 108.260824,979.457612 107.855652,979.221345 L107.561382,979.056694 C107.060194,978.763093 106.564974,978.45942 106.076024,978.145861 C105.925386,978.051275 105.778251,977.946178 105.627613,977.848089 L104.664232,977.210505 C103.98571,976.74025 103.319864,976.251963 102.667405,975.746166 L102.211989,975.395845 C95.2055795,969.888808 89.7125546,962.363924 87.0851511,953.837124 C84.3316323,944.991532 84.9236738,935.059947 89.6950386,927.002576 M109.775408,926.36149 C105.550543,932.61471 105.130158,940.314754 108.065844,947.188042 C111.159174,954.485217 117.499974,960.20595 124.902245,962.952463 L125.820085,963.302783 L126.226457,963.428898 L127.547165,963.779219 C147.998874,967.730834 153.540944,953.283618 155.022799,951.157172 C150.163854,958.153072 141.997884,959.831107 131.978719,957.399883 C131.186995,957.207207 130.3182,956.919944 129.554501,956.650197 C128.57433,956.302796 127.613122,955.904047 126.674867,955.455605 C124.894161,954.599198 123.203119,953.567674 121.626749,952.376288 C112.662048,945.576567 107.091953,932.565665 112.942305,922" id="jQuery"></path>
            </g>
        </g>
    </g>
</svg>