<?xml version="1.0" encoding="UTF-8"?>
<svg width="412px" height="113px" viewBox="0 0 412 113" version="1.1" xmlns="http://www.w3.org/2000/svg" xmlns:xlink="http://www.w3.org/1999/xlink">
    <!-- Generator: Sketch 53.2 (72643) - https://sketchapp.com -->
    <title>Dark</title>
    <desc>Created with Sketch.</desc>
    <g id="Design" stroke="none" stroke-width="1" fill="none" fill-rule="evenodd">
        <g id="social" transform="translate(-50.000000, -206.000000)" fill-rule="nonzero">
            <g id="Dark" transform="translate(52.480000, 205.720000)">
                <path d="M58.0608,7.016 L4.74795079,54.61329 C2.46984788,56.6471623 2.27185982,60.1427088 4.30573208,62.4208117 C4.47792585,62.6136828 4.663435,62.7942392 4.86089405,62.961152 L58.0608,107.9312" id="Path" stroke="#A6A6A6" stroke-width="10.24" stroke-linecap="round"></path>
                <path d="M406.4256,7.016 L353.112751,54.61329 C350.834648,56.6471623 350.63666,60.1427088 352.670532,62.4208117 C352.842726,62.6136828 353.028235,62.7942392 353.225694,62.961152 L406.4256,107.9312" id="Path" stroke="#A6A6A6" stroke-width="10.24" stroke-linecap="round" transform="translate(377.395200, 57.473600) scale(-1, 1) translate(-377.395200, -57.473600) "></path>
                <g id="cdnjs" transform="translate(73.262791, 0.892608)">
                    <path d="M0,56.95488 C0,52.6786346 0.663545364,48.6789306 1.990656,44.955648 C3.31776664,41.2323654 5.21624365,38.0067976 7.686144,35.278848 C10.1560443,32.5508984 13.1604303,30.4128077 16.699392,28.864512 C20.2383537,27.3162163 24.2196259,26.54208 28.643328,26.54208 C34.0992273,26.54208 39.2601357,27.537398 44.126208,29.528064 L41.250816,40.476672 C39.7025203,39.8131167 37.9514978,39.2601622 35.997696,38.817792 C34.0438942,38.3754218 31.9610991,38.15424 29.749248,38.15424 C24.5145338,38.15424 20.5332616,39.7946716 17.805312,43.075584 C15.0773624,46.3564964 13.713408,50.9828821 13.713408,56.95488 C13.713408,62.7056928 15.0036351,67.2583512 17.584128,70.612992 C20.1646209,73.9676328 24.5145294,75.644928 30.633984,75.644928 C32.9195634,75.644928 35.1682449,75.4237462 37.380096,74.981376 C39.5919471,74.5390058 41.5088559,73.9860513 43.13088,73.322496 L45.010944,84.381696 C43.5363766,85.1189797 41.3061269,85.7825251 38.320128,86.372352 C35.3341291,86.9621789 32.2560159,87.257088 29.085696,87.257088 C24.1458953,87.257088 19.8512822,86.5013836 16.201728,84.989952 C12.5521738,83.4785204 9.52935598,81.3772935 7.133184,78.686208 C4.73701202,75.9951225 2.9491259,72.7879866 1.769472,69.064704 C0.589818102,65.3414214 0,61.3048537 0,56.95488 Z M65.7362566,56.733696 C65.7362566,62.6319655 67.1370746,67.2583512 69.9387526,70.612992 C72.7404306,73.9676328 76.6111119,75.644928 81.5509126,75.644928 C83.6890352,75.644928 85.513785,75.5527689 87.0252166,75.368448 C88.5366481,75.1841271 89.7715798,74.9813771 90.7300486,74.760192 L90.7300486,41.582592 C89.5503947,40.7715799 87.9836903,40.0158755 86.0298886,39.315456 C84.0760868,38.6150365 81.9932916,38.264832 79.7814406,38.264832 C74.9153682,38.264832 71.3580278,39.9236954 69.1093126,43.241472 C66.8605973,46.5592486 65.7362566,51.0566116 65.7362566,56.733696 Z M104.111681,84.04992 C101.457459,84.8609321 98.1213006,85.5982047 94.1031046,86.26176 C90.0849085,86.9253153 85.8640227,87.257088 81.4403206,87.257088 C76.8691617,87.257088 72.7772986,86.556679 69.1646086,85.15584 C65.5519185,83.755001 62.4738053,81.7459331 59.9301766,79.128576 C57.3865478,76.5112189 55.4327754,73.3409466 54.0688006,69.617664 C52.7048257,65.8943814 52.0228486,61.7103592 52.0228486,57.065472 C52.0228486,52.4943131 52.5942348,48.3471546 53.7370246,44.623872 C54.8798143,40.9005894 56.5571095,37.7118853 58.7689606,35.057664 C60.9808116,32.4034427 63.6718567,30.3575112 66.8421766,28.919808 C70.0124964,27.4821048 73.6619959,26.763264 77.7907846,26.763264 C80.5924626,26.763264 83.0623259,27.0950367 85.2004486,27.758592 C87.3385712,28.4221473 89.1817528,29.1594199 90.7300486,29.970432 L90.7300486,2.21184 L104.111681,2.84217094e-14 L104.111681,84.04992 Z M122.072193,29.85984 C124.652686,29.1225563 128.007276,28.4221473 132.136065,27.758592 C136.264854,27.0950367 140.835944,26.763264 145.849473,26.763264 C150.568089,26.763264 154.512497,27.4083775 157.682817,28.698624 C160.853137,29.9888705 163.378296,31.7951884 165.258369,34.117632 C167.138443,36.4400756 168.465533,39.2417116 169.239681,42.522624 C170.013829,45.8035364 170.400897,49.3977405 170.400897,53.305344 L170.400897,85.819392 L157.019265,85.819392 L157.019265,55.406592 C157.019265,52.3100005 156.816515,49.6742509 156.411009,47.499264 C156.005503,45.3242771 155.341958,43.5548228 154.420353,42.190848 C153.498749,40.8268732 152.245385,39.8315551 150.660225,39.204864 C149.075065,38.5781729 147.139725,38.264832 144.854145,38.264832 C143.158393,38.264832 141.388938,38.3754229 139.545729,38.596608 C137.70252,38.8177931 136.338566,39.0021113 135.453825,39.149568 L135.453825,85.819392 L122.072193,85.819392 L122.072193,29.85984 Z" id="cdn" fill="#FF6934"></path>
                    <path d="M180.288194,106.389504 C179.329725,106.389504 177.984202,106.297345 176.251586,106.113024 C174.518969,105.928703 172.989128,105.578499 171.662018,105.0624 L173.43149,94.113792 C175.053514,94.6298906 177.007286,94.887936 179.292866,94.887936 C182.389457,94.887936 184.564411,93.984777 185.817794,92.178432 C187.071176,90.372087 187.697858,87.6626101 187.697858,84.04992 L187.697858,27.979776 L201.07949,27.979776 L201.07949,84.271104 C201.07949,91.7913976 199.291604,97.3578059 195.715778,100.970496 C192.139952,104.583186 186.997475,106.389504 180.288194,106.389504 Z M202.517186,11.0592 C202.517186,13.5659645 201.706186,15.5566006 200.084162,17.031168 C198.462138,18.5057354 196.545229,19.243008 194.333378,19.243008 C192.047798,19.243008 190.094026,18.5057354 188.472002,17.031168 C186.849978,15.5566006 186.038978,13.5659645 186.038978,11.0592 C186.038978,8.4787071 186.849978,6.45120737 188.472002,4.97664 C190.094026,3.50207263 192.047798,2.7648 194.333378,2.7648 C196.545229,2.7648 198.462138,3.50207263 200.084162,4.97664 C201.706186,6.45120737 202.517186,8.4787071 202.517186,11.0592 Z M233.527554,76.197888 C237.066516,76.197888 239.64697,75.7739562 241.268994,74.92608 C242.891018,74.0782038 243.702018,72.6220903 243.702018,70.557696 C243.702018,68.6407584 242.835723,67.0556223 241.103106,65.80224 C239.37049,64.5488577 236.513558,63.1849034 232.532226,61.710336 C230.09919,60.8255956 227.86894,59.885573 225.84141,58.89024 C223.81388,57.894907 222.062858,56.7337026 220.58829,55.406592 C219.113723,54.0794814 217.952518,52.4759134 217.104642,50.59584 C216.256766,48.7157666 215.832834,46.4117896 215.832834,43.68384 C215.832834,38.3753975 217.786607,34.1913753 221.69421,31.131648 C225.601814,28.0719207 230.910177,26.54208 237.619458,26.54208 C241.010963,26.54208 244.254963,26.8554209 247.351554,27.482112 C250.448146,28.1088031 252.770554,28.7170531 254.31885,29.30688 L251.885826,40.144896 C250.411259,39.4813407 248.531214,38.8730908 246.245634,38.320128 C243.960055,37.7671652 241.305873,37.490688 238.28301,37.490688 C235.555061,37.490688 233.343243,37.9514834 231.64749,38.873088 C229.951738,39.7946926 229.103874,41.2139424 229.103874,43.13088 C229.103874,44.0893488 229.269761,44.9372123 229.601538,45.674496 C229.933316,46.4117797 230.504702,47.0937569 231.315714,47.720448 C232.126726,48.3471391 233.195772,48.9738209 234.522882,49.600512 C235.849993,50.2272031 237.471993,50.8723167 239.38893,51.535872 C242.55925,52.7155259 245.250295,53.8767303 247.462146,55.01952 C249.673997,56.1623097 251.498747,57.4525368 252.93645,58.89024 C254.374153,60.3279432 255.424767,61.9683748 256.088322,63.811584 C256.751878,65.6547932 257.08365,67.8666111 257.08365,70.447104 C257.08365,75.9767316 255.037719,80.1607538 250.945794,82.999296 C246.85387,85.8378382 241.010984,87.257088 233.416962,87.257088 C228.329705,87.257088 224.237842,86.8331562 221.14125,85.98528 C218.044659,85.1374038 215.869705,84.4554266 214.616322,83.939328 L216.938754,72.769536 C218.92942,73.5805481 221.307124,74.3546843 224.071938,75.091968 C226.836752,75.8292517 229.988593,76.197888 233.527554,76.197888 Z" id="js" fill="#EBEBEB"></path>
                </g>
            </g>
        </g>
    </g>
</svg>